<svg xmlns="http://www.w3.org/2000/svg" viewBox="0 0 512 512" fill="none">
  <defs>
    <!-- Gradients -->
    <linearGradient id="bg" x1="0%" y1="0%" x2="100%" y2="100%">
      <stop offset="0%" style="stop-color:#1a1a2e"/>
      <stop offset="100%" style="stop-color:#16213e"/>
    </linearGradient>
    <linearGradient id="hex-fill" x1="0%" y1="0%" x2="100%" y2="100%">
      <stop offset="0%" style="stop-color:#f59e0b"/>
      <stop offset="100%" style="stop-color:#d97706"/>
    </linearGradient>
    <linearGradient id="accent" x1="0%" y1="0%" x2="100%" y2="100%">
      <stop offset="0%" style="stop-color:#8b5cf6"/>
      <stop offset="100%" style="stop-color:#6d28d9"/>
    </linearGradient>

    <!-- Outer glow for center hex (amber tint) -->
    <filter id="hex-glow" x="-80%" y="-80%" width="260%" height="260%">
      <feGaussianBlur in="SourceGraphic" stdDeviation="10" result="blur"/>
      <feColorMatrix in="blur" type="matrix"
        values="1 0 0 0 0
                0.6 0.4 0 0 0
                0 0 0 0 0
                0 0 0 0.4 0" result="glow"/>
      <feMerge>
        <feMergeNode in="glow"/>
        <feMergeNode in="SourceGraphic"/>
      </feMerge>
    </filter>

    <!-- Drop shadow -->
    <filter id="shadow" x="-20%" y="-20%" width="140%" height="140%">
      <feDropShadow dx="0" dy="4" stdDeviation="8" flood-color="#000" flood-opacity="0.3"/>
    </filter>

    <!-- Status dot glow -->
    <filter id="dot-glow" x="-100%" y="-100%" width="300%" height="300%">
      <feGaussianBlur stdDeviation="3" result="blur"/>
      <feMerge>
        <feMergeNode in="blur"/>
        <feMergeNode in="SourceGraphic"/>
      </feMerge>
    </filter>

    <style>
      @keyframes blink {
        0%, 100% { opacity: 0.9; }
        50% { opacity: 0; }
      }
      @keyframes pulse {
        0%, 100% { opacity: 1; }
        50% { opacity: 0.3; }
      }
      .cursor-blink {
        animation: blink 1.2s step-end infinite;
      }
      .dot-pulse {
        animation: pulse 1.5s ease-in-out infinite;
      }
    </style>
  </defs>

  <!-- Background -->
  <rect width="512" height="512" rx="96" fill="url(#bg)"/>

  <!-- Subtle grid lines -->
  <g stroke="#ffffff" stroke-opacity="0.03" stroke-width="1">
    <line x1="0" y1="128" x2="512" y2="128"/>
    <line x1="0" y1="256" x2="512" y2="256"/>
    <line x1="0" y1="384" x2="512" y2="384"/>
    <line x1="128" y1="0" x2="128" y2="512"/>
    <line x1="256" y1="0" x2="256" y2="512"/>
    <line x1="384" y1="0" x2="384" y2="512"/>
  </g>

  <!-- Honeycomb cluster: center at (256, 195), large r=75, small r=46, spacing=120 -->
  <g filter="url(#shadow)">
    <!-- Surrounding hex 1: Right (0 deg) - Working (blue, pulsing) -->
    <g transform="translate(376, 195)">
      <polygon points="46,0 23,39.8 -23,39.8 -46,0 -23,-39.8 23,-39.8"
               fill="#f59e0b" fill-opacity="0.2" stroke="#f59e0b" stroke-width="1.2" stroke-opacity="0.4"/>
      <circle cx="0" cy="0" r="7" fill="#3b82f6" filter="url(#dot-glow)" class="dot-pulse"/>
    </g>

    <!-- Surrounding hex 2: Bottom-right (60 deg) - Permission (amber) -->
    <g transform="translate(316, 299)">
      <polygon points="46,0 23,39.8 -23,39.8 -46,0 -23,-39.8 23,-39.8"
               fill="#f59e0b" fill-opacity="0.25" stroke="#f59e0b" stroke-width="1.2" stroke-opacity="0.4"/>
      <circle cx="0" cy="0" r="7" fill="#f59e0b" filter="url(#dot-glow)"/>
    </g>

    <!-- Surrounding hex 3: Bottom-left (120 deg) - Done (green) -->
    <g transform="translate(196, 299)">
      <polygon points="46,0 23,39.8 -23,39.8 -46,0 -23,-39.8 23,-39.8"
               fill="#f59e0b" fill-opacity="0.3" stroke="#f59e0b" stroke-width="1.2" stroke-opacity="0.4"/>
      <circle cx="0" cy="0" r="7" fill="#10b981" filter="url(#dot-glow)"/>
    </g>

    <!-- Surrounding hex 4: Left (180 deg) - Idle (gray) -->
    <g transform="translate(136, 195)">
      <polygon points="46,0 23,39.8 -23,39.8 -46,0 -23,-39.8 23,-39.8"
               fill="#f59e0b" fill-opacity="0.15" stroke="#f59e0b" stroke-width="1.2" stroke-opacity="0.35"/>
      <circle cx="0" cy="0" r="7" fill="#6b7280"/>
    </g>

    <!-- Surrounding hex 5: Top-left (240 deg) - Error (red) -->
    <g transform="translate(196, 91)">
      <polygon points="46,0 23,39.8 -23,39.8 -46,0 -23,-39.8 23,-39.8"
               fill="#f59e0b" fill-opacity="0.2" stroke="#f59e0b" stroke-width="1.2" stroke-opacity="0.4"/>
      <circle cx="0" cy="0" r="7" fill="#ef4444" filter="url(#dot-glow)"/>
    </g>

    <!-- Surrounding hex 6: Top-right (300 deg) - Working (blue, pulsing) -->
    <g transform="translate(316, 91)">
      <polygon points="46,0 23,39.8 -23,39.8 -46,0 -23,-39.8 23,-39.8"
               fill="#f59e0b" fill-opacity="0.25" stroke="#f59e0b" stroke-width="1.2" stroke-opacity="0.4"/>
      <circle cx="0" cy="0" r="7" fill="#3b82f6" filter="url(#dot-glow)" class="dot-pulse"/>
    </g>

    <!-- Center hexagon (main, ~1.6x larger than surrounding) -->
    <g transform="translate(256, 195)" filter="url(#hex-glow)">
      <polygon points="75,0 37.5,64.95 -37.5,64.95 -75,0 -37.5,-64.95 37.5,-64.95"
               fill="url(#hex-fill)" stroke="#fbbf24" stroke-width="2.5"/>
    </g>
  </g>

  <!-- Terminal prompt and cursor inside center hex -->
  <g transform="translate(256, 195)">
    <text x="-14" y="12" font-family="'SF Mono', 'Fira Code', 'JetBrains Mono', monospace" font-size="48"
          font-weight="bold" fill="#1a1a2e" text-anchor="middle">&#x276f;</text>
    <rect x="12" y="-16" width="4" height="36" rx="1" fill="#1a1a2e" opacity="0.85" class="cursor-blink"/>
  </g>

  <!-- "APIARY" text -->
  <text x="256" y="390" font-family="'SF Mono', 'Fira Code', 'JetBrains Mono', monospace"
        font-size="52" font-weight="800" fill="#ffffff" text-anchor="middle"
        letter-spacing="8">APIARY</text>

  <!-- Subtitle -->
  <text x="256" y="420" font-family="'SF Mono', 'Fira Code', 'JetBrains Mono', monospace"
        font-size="18" fill="#ffffff" fill-opacity="0.5" text-anchor="middle"
        letter-spacing="3">SESSION MANAGER</text>
</svg>
